<svg width="44" height="45" viewBox="0 0 44 45" fill="none" xmlns="http://www.w3.org/2000/svg">
<rect x="0.5" y="0.614258" width="43" height="43" rx="21.5" stroke="url(#paint0_linear_683_799)"/>
<path d="M15.4375 17.0101C15.4375 16.6233 15.5911 16.2524 15.8646 15.9789C16.1381 15.7054 16.5091 15.5518 16.8958 15.5518H19.2875C19.4405 15.5519 19.5895 15.6001 19.7136 15.6896C19.8376 15.7791 19.9304 15.9054 19.9787 16.0505L21.071 19.3267C21.1264 19.4932 21.1198 19.674 21.0526 19.8361C20.9854 19.9981 20.862 20.1305 20.705 20.2089L19.0593 21.0329C19.866 22.8183 21.296 24.2483 23.0814 25.055L23.9053 23.4093C23.9837 23.2523 24.1161 23.1289 24.2782 23.0617C24.4402 22.9944 24.6211 22.9879 24.7876 23.0432L28.0638 24.1355C28.209 24.1839 28.3353 24.2768 28.4249 24.401C28.5144 24.5252 28.5625 24.6744 28.5625 24.8275V27.2184C28.5625 27.6052 28.4089 27.9761 28.1354 28.2496C27.8619 28.5231 27.4909 28.6768 27.1042 28.6768H26.375C20.3346 28.6768 15.4375 23.7797 15.4375 17.7393V17.0101Z" stroke="white" stroke-width="1.45833" stroke-linecap="round" stroke-linejoin="round"/>
<path d="M15.4375 17.0101C15.4375 16.6233 15.5911 16.2524 15.8646 15.9789C16.1381 15.7054 16.5091 15.5518 16.8958 15.5518H19.2875C19.4405 15.5519 19.5895 15.6001 19.7136 15.6896C19.8376 15.7791 19.9304 15.9054 19.9787 16.0505L21.071 19.3267C21.1264 19.4932 21.1198 19.674 21.0526 19.8361C20.9854 19.9981 20.862 20.1305 20.705 20.2089L19.0593 21.0329C19.866 22.8183 21.296 24.2483 23.0814 25.055L23.9053 23.4093C23.9837 23.2523 24.1161 23.1289 24.2782 23.0617C24.4402 22.9944 24.6211 22.9879 24.7876 23.0432L28.0638 24.1355C28.209 24.1839 28.3353 24.2768 28.4249 24.401C28.5144 24.5252 28.5625 24.6744 28.5625 24.8275V27.2184C28.5625 27.6052 28.4089 27.9761 28.1354 28.2496C27.8619 28.5231 27.4909 28.6768 27.1042 28.6768H26.375C20.3346 28.6768 15.4375 23.7797 15.4375 17.7393V17.0101Z" stroke="url(#paint1_linear_683_799)" stroke-width="1.45833" stroke-linecap="round" stroke-linejoin="round"/>
<defs>
<linearGradient id="paint0_linear_683_799" x1="22" y1="0.114258" x2="22" y2="44.1143" gradientUnits="userSpaceOnUse">
<stop stop-color="#FFCE00"/>
<stop offset="1" stop-color="#FF4F81"/>
</linearGradient>
<linearGradient id="paint1_linear_683_799" x1="22" y1="15.5518" x2="22" y2="28.6768" gradientUnits="userSpaceOnUse">
<stop stop-color="#FFCE00"/>
<stop offset="1" stop-color="#FF4F81"/>
</linearGradient>
</defs>
</svg>
