<svg width="23" height="17" viewBox="0 0 23 17" fill="none" xmlns="http://www.w3.org/2000/svg">
<path d="M13.3779 11.3029C12.8405 11.6612 12.2163 11.8505 11.5728 11.8505C10.9292 11.8505 10.305 11.6612 9.76765 11.3029L0.916583 5.40201C0.867477 5.36927 0.819636 5.33514 0.772766 5.30004V14.9693C0.772766 16.0779 1.67241 16.9577 2.76119 16.9577H20.3843C21.4929 16.9577 22.3727 16.0581 22.3727 14.9693V5.3C22.3258 5.33518 22.2778 5.3694 22.2286 5.40218L13.3779 11.3029Z" fill="#F8B03C"/>
<path d="M1.61863 4.34997L10.4697 10.2509C10.8047 10.4743 11.1887 10.586 11.5727 10.586C11.9568 10.586 12.3408 10.4742 12.6758 10.2509L21.5269 4.34997C22.0566 3.99708 22.3728 3.40645 22.3728 2.769C22.3728 1.67293 21.481 0.78125 20.385 0.78125H2.76051C1.66448 0.781292 0.772766 1.67297 0.772766 2.77005C0.772766 3.40645 1.089 3.99708 1.61863 4.34997Z" fill="#F8B03C"/>
</svg>
