<svg width="18" height="22" viewBox="0 0 18 22" fill="none" xmlns="http://www.w3.org/2000/svg">
<path d="M9.59288 21.0939L9.58188 21.0959L9.51088 21.1309L9.49088 21.1349L9.47688 21.1309L9.40588 21.0959C9.39521 21.0926 9.38721 21.0943 9.38188 21.1009L9.37788 21.1109L9.36088 21.5389L9.36588 21.5589L9.37588 21.5719L9.47988 21.6459L9.49488 21.6499L9.50688 21.6459L9.61088 21.5719L9.62288 21.5559L9.62688 21.5389L9.60988 21.1119C9.60721 21.1013 9.60155 21.0953 9.59288 21.0939ZM9.85788 20.9809L9.84488 20.9829L9.65988 21.0759L9.64988 21.0859L9.64688 21.0969L9.66488 21.5269L9.66988 21.5389L9.67788 21.5459L9.87888 21.6389C9.89154 21.6423 9.90121 21.6396 9.90788 21.6309L9.91188 21.6169L9.87788 21.0029C9.87454 20.9909 9.86788 20.9836 9.85788 20.9809ZM9.14288 20.9829C9.13847 20.9803 9.1332 20.9794 9.12817 20.9805C9.12314 20.9816 9.11874 20.9847 9.11588 20.9889L9.10988 21.0029L9.07588 21.6169C9.07654 21.6289 9.08221 21.6369 9.09288 21.6409L9.10788 21.6389L9.30888 21.5459L9.31888 21.5379L9.32288 21.5269L9.33988 21.0969L9.33688 21.0849L9.32688 21.0749L9.14288 20.9829Z" fill="white"/>
<path d="M12.9999 0.835938C14.326 0.835938 15.5977 1.36272 16.5354 2.3004C17.4731 3.23809 17.9999 4.50986 17.9999 5.83594V13.8359C17.9999 15.162 17.4731 16.4338 16.5354 17.3715C15.5977 18.3092 14.326 18.8359 12.9999 18.8359H4.99988C3.6738 18.8359 2.40203 18.3092 1.46434 17.3715C0.526662 16.4338 -0.00012207 15.162 -0.00012207 13.8359V5.83594C-0.00012207 4.50986 0.526662 3.23809 1.46434 2.3004C2.40203 1.36272 3.6738 0.835938 4.99988 0.835938H12.9999ZM8.99988 5.83594C7.93901 5.83594 6.9216 6.25736 6.17145 7.00751C5.42131 7.75766 4.99988 8.77507 4.99988 9.83594C4.99988 10.8968 5.42131 11.9142 6.17145 12.6644C6.9216 13.4145 7.93901 13.8359 8.99988 13.8359C10.0607 13.8359 11.0782 13.4145 11.8283 12.6644C12.5785 11.9142 12.9999 10.8968 12.9999 9.83594C12.9999 8.77507 12.5785 7.75766 11.8283 7.00751C11.0782 6.25736 10.0607 5.83594 8.99988 5.83594ZM8.99988 7.83594C9.53031 7.83594 10.039 8.04665 10.4141 8.42172C10.7892 8.7968 10.9999 9.3055 10.9999 9.83594C10.9999 10.3664 10.7892 10.8751 10.4141 11.2502C10.039 11.6252 9.53031 11.8359 8.99988 11.8359C8.46944 11.8359 7.96074 11.6252 7.58566 11.2502C7.21059 10.8751 6.99988 10.3664 6.99988 9.83594C6.99988 9.3055 7.21059 8.7968 7.58566 8.42172C7.96074 8.04665 8.46944 7.83594 8.99988 7.83594ZM13.4999 4.33594C13.2347 4.33594 12.9803 4.44129 12.7928 4.62883C12.6052 4.81637 12.4999 5.07072 12.4999 5.33594C12.4999 5.60115 12.6052 5.85551 12.7928 6.04304C12.9803 6.23058 13.2347 6.33594 13.4999 6.33594C13.7651 6.33594 14.0194 6.23058 14.207 6.04304C14.3945 5.85551 14.4999 5.60115 14.4999 5.33594C14.4999 5.07072 14.3945 4.81637 14.207 4.62883C14.0194 4.44129 13.7651 4.33594 13.4999 4.33594Z" fill="white"/>
</svg>
