<svg width="18" height="18" viewBox="0 0 18 18" fill="none" xmlns="http://www.w3.org/2000/svg">
<path d="M3.83872 17.592H0.283159V6.14208H3.83872V17.592ZM2.05903 4.5802C0.922073 4.5802 -0.00012207 3.63848 -0.00012207 2.50153C-0.000122062 1.95541 0.216823 1.43166 0.602989 1.04549C0.989154 0.659328 1.51291 0.442383 2.05903 0.442383C2.60515 0.442383 3.1289 0.659328 3.51506 1.04549C3.90123 1.43166 4.11818 1.95541 4.11818 2.50153C4.11818 3.63848 3.1956 4.5802 2.05903 4.5802ZM13.5981 17.592V12.0182C13.5981 10.6899 13.5713 8.98637 11.7495 8.98637C9.90094 8.98637 9.61766 10.4296 9.61766 11.9225V17.592H6.06593V6.14208H9.47602V7.70395H9.52578C10.0005 6.80434 11.16 5.85497 12.8899 5.85497C16.4884 5.85497 17.1499 8.22458 17.1499 11.3024V17.592H13.5981Z" fill="white"/>
</svg>
