<svg width="14" height="19" viewBox="0 0 14 19" fill="none" xmlns="http://www.w3.org/2000/svg">
<path d="M6.9025 0.269531C3.52263 0.269531 0.772766 3.26027 0.772766 6.93621C0.772766 8.03973 1.02644 9.13387 1.50869 10.1043L6.56729 18.0547C6.63463 18.1873 6.76296 18.2695 6.9025 18.2695C7.04203 18.2695 7.17036 18.1873 7.2377 18.0547L12.2982 10.1011C12.7785 9.13387 13.0322 8.03969 13.0322 6.93617C13.0322 3.26027 10.2824 0.269531 6.9025 0.269531ZM6.9025 10.2695C5.21256 10.2695 3.83765 8.77418 3.83765 6.93621C3.83765 5.09824 5.21256 3.60289 6.9025 3.60289C8.59243 3.60289 9.96734 5.09824 9.96734 6.93621C9.96734 8.77418 8.59243 10.2695 6.9025 10.2695Z" fill="#F8B03C"/>
</svg>
