<svg width="23" height="22" viewBox="0 0 23 22" fill="none" xmlns="http://www.w3.org/2000/svg">
<path d="M17.1932 14.558C16.4876 13.8614 15.6067 13.8614 14.9055 14.558C14.3707 15.0884 13.8359 15.6187 13.31 16.1581C13.1662 16.3064 13.0448 16.3378 12.8695 16.239C12.5235 16.0502 12.1549 15.8974 11.8223 15.6906C10.2717 14.7153 8.97284 13.4614 7.82226 12.0501C7.25146 11.349 6.74359 10.5984 6.38852 9.75344C6.31661 9.58265 6.3301 9.47029 6.46942 9.33096C7.00426 8.8141 7.52562 8.28375 8.05148 7.7534C8.78407 7.01631 8.78407 6.15337 8.04698 5.41179C7.629 4.98931 7.21101 4.57582 6.79303 4.15334C6.36156 3.72187 5.93458 3.2859 5.49862 2.85893C4.79299 2.17128 3.91207 2.17128 3.21094 2.86342C2.6716 3.39377 2.15474 3.9376 1.60641 4.45896C1.09854 4.93987 0.842352 5.52864 0.788419 6.2163C0.703024 7.33542 0.977186 8.39162 1.36371 9.42085C2.15474 11.5512 3.35925 13.4434 4.81995 15.1783C6.79303 17.5244 9.14813 19.3806 11.9032 20.7199C13.1437 21.3222 14.4291 21.7851 15.8269 21.8615C16.7887 21.9155 17.6247 21.6728 18.2944 20.9222C18.7528 20.4098 19.2697 19.9424 19.7551 19.4525C20.4742 18.7244 20.4787 17.8435 19.7641 17.1244C18.9101 16.2659 18.0517 15.412 17.1932 14.558Z" fill="#F8B03C"/>
<path d="M16.3334 10.972L17.9919 10.6888C17.7312 9.16521 17.0121 7.78541 15.9199 6.68876C14.7649 5.53369 13.3042 4.80558 11.6951 4.58086L11.4614 6.24831C12.7064 6.42359 13.839 6.9854 14.7334 7.8798C15.5784 8.72476 16.1312 9.79444 16.3334 10.972Z" fill="#F8B03C"/>
<path d="M18.9274 3.76623C17.0128 1.85158 14.5903 0.642572 11.916 0.269531L11.6823 1.93698C13.9925 2.26058 16.0869 3.30779 17.7409 4.95726C19.3094 6.52583 20.3387 8.50789 20.7117 10.6877L22.3702 10.4046C21.9342 7.87866 20.7432 5.58648 18.9274 3.76623Z" fill="#F8B03C"/>
</svg>
