<svg width="20" height="20" viewBox="0 0 20 20" fill="none" xmlns="http://www.w3.org/2000/svg">
<path d="M7.29167 14.8632V18.7282C7.29167 18.9982 7.465 19.2374 7.72167 19.3224C7.78583 19.3432 7.85167 19.3532 7.91667 19.3532C8.11167 19.3532 8.3 19.2615 8.42 19.0982L10.6808 16.0215L7.29167 14.8632Z" fill="#F8B03C"/>
<path d="M19.7375 0.302431C19.5459 0.166597 19.2942 0.148264 19.0859 0.257431L0.33587 10.0491C0.114204 10.1649 -0.0166296 10.4016 0.00170373 10.6508C0.0208704 10.9008 0.186704 11.1141 0.422537 11.1949L5.63504 12.9766L16.7359 3.48493L8.14587 13.8341L16.8817 16.8199C16.9467 16.8416 17.015 16.8533 17.0834 16.8533C17.1967 16.8533 17.3092 16.8224 17.4084 16.7624C17.5667 16.6658 17.6742 16.5033 17.7017 16.3208L19.9934 0.904097C20.0275 0.670764 19.9292 0.439097 19.7375 0.302431Z" fill="#F8B03C"/>
</svg>
