<svg width="22" height="16" viewBox="0 0 22 16" fill="none" xmlns="http://www.w3.org/2000/svg">
<path d="M20.6416 3.19263C20.4011 2.28728 19.6927 1.57425 18.7932 1.33228C17.1628 0.892578 10.6251 0.892578 10.6251 0.892578C10.6251 0.892578 4.08743 0.892578 2.45699 1.33228C1.5575 1.57429 0.849063 2.28728 0.608618 3.19263C0.171753 4.83363 0.171753 8.25743 0.171753 8.25743C0.171753 8.25743 0.171753 11.6812 0.608618 13.3222C0.849063 14.2276 1.5575 14.9109 2.45699 15.1529C4.08743 15.5926 10.6251 15.5926 10.6251 15.5926C10.6251 15.5926 17.1628 15.5926 18.7932 15.1529C19.6927 14.9109 20.4011 14.2276 20.6416 13.3222C21.0784 11.6812 21.0784 8.25743 21.0784 8.25743C21.0784 8.25743 21.0784 4.83363 20.6416 3.19263ZM8.4869 11.366V5.14888L13.9511 8.25751L8.4869 11.366Z" fill="white"/>
</svg>
